<svg width="40" height="40" viewBox="0 0 40 40" fill="none" xmlns="http://www.w3.org/2000/svg">
<g clip-path="url(#clip0_602_6)">
<path d="M19.9988 3.23204C20.4582 3.57672 20.8601 3.61406 22.0614 3.68202C25.5813 3.88405 27.8132 4.63597 30.2958 6.45856C33.3349 8.68184 35.2416 11.7831 35.9642 15.6762C36.1502 16.6841 36.2422 17.5395 36.3048 18.8287C36.3428 19.6934 36.3728 20.0287 36.5695 20.4073C36.8468 20.924 37.3842 21.2673 38.0074 21.3253C38.0688 21.3306 38.1301 21.3332 38.1908 21.3332C38.7455 21.3332 39.2601 21.0986 39.5887 20.6899C40.0253 20.1579 40.0247 19.662 39.982 18.594C39.8567 15.2861 39.1334 12.3142 37.8321 9.76094C36.9042 7.94437 36.0182 6.75441 34.4449 5.21181C32.767 3.58054 31.4737 2.66792 29.4991 1.7246C27.4072 0.726118 25.9273 0.410114 23.76 0.145514C23.3227 0.0955162 22.4993 0.0302061 21.928 0.0115349C20.8394 -0.0244794 20.4141 0.00489454 19.9115 0.451519C19.5262 0.790803 19.3162 1.30617 19.3335 1.86678C19.3508 2.4234 19.5921 2.91869 19.9988 3.23204Z" fill="black"/>
<path d="M30.9704 17.5323C30.9704 18.4689 31.0477 19.3482 31.971 19.8029C32.2243 19.9342 32.5543 20.0003 32.8763 20.0003C33.1623 20.0003 33.4409 19.9476 33.6536 19.841C34.0269 19.6489 34.4036 19.2436 34.5509 18.877C34.7382 18.4044 34.6529 16.7097 34.5996 16.2318C34.3496 14.0966 33.6076 12.0806 32.4543 10.4027C30.3651 7.36752 27.2345 5.53219 23.1513 4.94761C21.7667 4.74363 20.7381 4.6716 20.1328 5.59555C19.6575 6.29756 19.7181 7.19283 20.2794 7.82016C20.7267 8.32748 21.3673 8.44216 21.934 8.48747C23.5566 8.61544 25.3739 9.14675 26.5652 9.84078L26.5672 9.84141C27.9532 10.644 29.1005 11.8107 29.8864 13.216C30.5751 14.4451 30.9704 16.0184 30.9704 17.5323Z" fill="black"/>
<path d="M27.419 11.8068C26.507 10.9715 25.4384 10.4482 24.0584 10.1602C23.7424 10.0936 23.2064 10.0355 22.8732 10.0169C22.2985 9.98155 22.0619 9.98757 21.6532 10.1862C21.1593 10.4341 20.8132 10.8941 20.7026 11.4468C20.5926 11.9961 20.7333 12.5488 21.0932 12.9688C21.5092 13.4441 21.9352 13.5628 22.7945 13.6648C24.2305 13.8368 25.0391 14.3201 25.4964 15.2787C25.7278 15.768 25.8591 16.304 25.9351 17.0747C26.0138 17.7967 26.1551 18.2599 26.669 18.6399C26.9924 18.8839 27.4017 19.0046 27.807 19.0046C28.2503 19.0046 28.6896 18.8599 29.0103 18.5739L29.0143 18.5712C29.6769 17.972 29.7049 17.2286 29.5256 16.0687C29.2476 14.2107 28.599 12.8961 27.419 11.8068Z" fill="black"/>
<path d="M39.9958 32.2505C39.9631 31.5245 39.7138 30.8752 39.2485 30.3145C38.7992 29.7846 35.9293 27.5153 34.6487 26.6387C33.6527 25.9607 32.0788 25.0061 31.3428 24.6334C30.2555 24.0927 29.1621 23.9981 28.0862 24.3548C27.8509 24.4334 27.6829 24.5034 27.5249 24.5861C26.9803 24.8721 26.5803 25.3227 25.803 26.2787C24.9703 27.284 24.797 27.4793 24.799 27.4793C24.7204 27.5267 24.595 27.5933 24.443 27.6627C23.8237 27.9447 22.8084 27.7127 21.1571 26.908C19.7638 26.2341 18.5125 25.3688 17.0993 24.1034C15.8954 23.0308 14.6847 21.6395 14.0128 20.5602C13.0795 19.0629 12.5149 17.3303 12.5082 16.5257C12.5082 16.2123 12.6455 15.7623 12.7942 15.5144L12.8595 15.447C12.9034 15.4044 12.9521 15.3584 13.0188 15.2997C13.2508 15.091 13.5867 14.8118 13.9367 14.535C15.4727 13.3251 15.9593 12.8351 16.2193 11.9251C16.4706 11.0838 16.25 10.0479 15.5246 8.66597C14.4439 6.60401 11.0174 2.2155 9.58748 1.29023C9.35218 1.14289 8.96485 0.944223 8.69087 0.852273C8.10425 0.644937 7.26163 0.574315 6.73758 0.685639C6.0123 0.834305 5.21631 1.29093 3.45974 2.5669C2.49719 3.27156 1.01327 4.64948 0.610546 5.30812C-0.339418 6.90338 -0.097396 8.28731 0.7639 10.6053C1.58457 12.8172 2.63719 15.0438 3.88847 17.2177L3.95378 17.3277C4.2058 17.763 4.46376 18.197 4.73446 18.6323L4.80445 18.7423C5.07312 19.1696 5.34514 19.5963 5.62974 20.0209L6.07839 20.6736C6.24573 20.9175 6.41236 21.1609 6.58501 21.4029C6.9257 21.8776 7.27499 22.3509 7.637 22.8229C11.4962 27.848 15.942 31.8825 21.2278 35.1551L21.4445 35.2911C22.2118 35.7611 23.0284 36.231 23.871 36.687L24.2003 36.8644C25.0723 37.3283 25.9009 37.7443 26.7336 38.1343L26.9928 38.2523C27.9762 38.7076 28.8754 39.0989 29.7407 39.4476C30.788 39.8702 31.2727 39.9996 32.0086 39.9996C32.1393 39.9996 32.2786 39.9956 32.4306 39.9882C32.9053 39.9656 33.3319 39.8949 33.7359 39.7716C34.3032 39.5996 34.8712 39.3109 35.5211 38.8623C35.6345 38.7843 35.7478 38.7049 35.8698 38.6149C36.0138 38.5089 36.1671 38.3789 36.3224 38.2449C37.0631 37.6043 37.9131 36.6737 38.5977 35.7557C38.963 35.2658 39.4483 34.5545 39.6903 33.9438C39.9169 33.3725 40.0196 32.8025 39.9956 32.2512V32.2505H39.9958Z" fill="black"/>
</g>
<defs>
<clipPath id="clip0_602_6">
<rect width="40" height="40" fill="white"/>
</clipPath>
</defs>
</svg>
