<svg width="34" height="23" viewBox="0 0 34 23" fill="none" xmlns="http://www.w3.org/2000/svg">
<g id="burgerMenu">
<path id="rectangle 1" d="M0 1.91667C0 0.858121 0.858121 0 1.91667 0H32.0833C33.1419 0 34 0.858121 34 1.91667V1.91667C34 2.97521 33.1419 3.83333 32.0833 3.83333H1.91667C0.858122 3.83333 0 2.97521 0 1.91667V1.91667Z" fill="#FFF9F8"/>
<path id="rectangle 2" d="M0 11.5002C0 10.4416 0.858121 9.5835 1.91667 9.5835H32.0833C33.1419 9.5835 34 10.4416 34 11.5002V11.5002C34 12.5587 33.1419 13.4168 32.0833 13.4168H1.91667C0.858122 13.4168 0 12.5587 0 11.5002V11.5002Z" fill="#FFF9F8"/>
<path id="rectangle 3" d="M0 21.0832C0 20.0246 0.858121 19.1665 1.91667 19.1665H32.0833C33.1419 19.1665 34 20.0246 34 21.0832V21.0832C34 22.1417 33.1419 22.9998 32.0833 22.9998H1.91667C0.858122 22.9998 0 22.1417 0 21.0832V21.0832Z" fill="#FFF9F8"/>
</g>
</svg>
