<svg width="586" height="300" viewBox="0 0 586 300" fill="none" xmlns="http://www.w3.org/2000/svg">
<g clip-path="url(#clip0_22713_260)">
<rect x="0.5" y="0.5" width="585" height="299" stroke="#1E2E36"/>
<rect x="195.5" y="100.5" width="194.333" height="99" fill="#44C697" stroke="#1E2E36"/>
<line x1="195.773" y1="100.445" x2="-0.227232" y2="0.445389" stroke="#1E2E36"/>
<line y1="-0.5" x2="220.036" y2="-0.5" transform="matrix(0.890762 -0.45447 -0.45447 -0.890762 390 100)" stroke="#1E2E36"/>
<line y1="-0.5" x2="220.036" y2="-0.5" transform="matrix(-0.890762 0.45447 0.45447 0.890762 196 200)" stroke="#1E2E36"/>
<line x1="390.227" y1="199.555" x2="586.227" y2="299.555" stroke="#1E2E36"/>
<path d="M318.897 152.537H267.103C264.615 152.534 262.599 150.518 262.597 148.03V115.506C262.6 113.019 264.615 111.003 267.103 111H318.897C321.384 111.003 323.4 113.019 323.403 115.506V148.03C323.4 150.518 321.385 152.534 318.897 152.537ZM267.103 113.344C265.909 113.345 264.942 114.313 264.94 115.506V148.03C264.942 149.224 265.909 150.192 267.103 150.193H318.897C320.091 150.192 321.058 149.224 321.059 148.03V115.506C321.058 114.313 320.091 113.345 318.897 113.344H267.103Z" fill="#1E2E36"/>
<path d="M318.897 181.769H267.103C264.615 181.766 262.599 179.75 262.597 177.262V154.7C262.6 152.212 264.615 150.196 267.103 150.193H318.897C321.384 150.196 323.4 152.212 323.403 154.7V177.262C323.4 179.75 321.385 181.766 318.897 181.769ZM267.103 152.537C265.909 152.538 264.942 153.506 264.94 154.7V177.262C264.942 178.456 265.909 179.423 267.103 179.425H318.897C320.091 179.423 321.058 178.456 321.059 177.262V154.7C321.058 153.506 320.091 152.538 318.897 152.537H267.103V152.537Z" fill="#1E2E36"/>
<path d="M338.493 181.769H325.566C323.078 181.766 321.062 179.75 321.06 177.262V137.72C321.062 135.232 323.078 133.216 325.566 133.213H338.493C340.981 133.216 342.997 135.232 343 137.72V177.262C342.997 179.75 340.981 181.766 338.493 181.769ZM325.566 135.557C324.372 135.558 323.405 136.526 323.403 137.72V177.262C323.405 178.456 324.372 179.423 325.566 179.425H338.493C339.687 179.423 340.655 178.456 340.656 177.262V137.72C340.655 136.526 339.687 135.558 338.493 135.557H325.566Z" fill="#1E2E36"/>
<path d="M260.434 181.769H247.507C245.019 181.766 243.003 179.75 243 177.262V137.72C243.003 135.232 245.019 133.216 247.506 133.213H260.434C262.921 133.216 264.938 135.232 264.94 137.72V177.262C264.938 179.75 262.922 181.766 260.434 181.769ZM247.506 135.557C246.313 135.558 245.345 136.526 245.344 137.72V177.262C245.345 178.456 246.313 179.423 247.506 179.425H260.434C261.628 179.423 262.595 178.456 262.596 177.262V137.72C262.595 136.526 261.628 135.558 260.434 135.557H247.506Z" fill="#1E2E36"/>
<path d="M322.231 167.153H263.768C263.121 167.153 262.597 166.628 262.597 165.981C262.597 165.334 263.121 164.809 263.768 164.809H322.231C322.879 164.809 323.403 165.334 323.403 165.981C323.403 166.628 322.879 167.153 322.231 167.153Z" fill="#1E2E36"/>
<path d="M253.97 188.752C252.029 188.754 250.336 187.432 249.868 185.547L248.705 180.88C248.548 180.252 248.93 179.616 249.558 179.459C249.651 179.436 249.746 179.424 249.841 179.425H258.099C258.746 179.425 259.27 179.949 259.27 180.596C259.27 180.692 259.259 180.787 259.236 180.88L258.072 185.547C257.604 187.432 255.911 188.754 253.97 188.752V188.752ZM251.341 181.768L252.142 184.98C252.394 185.989 253.416 186.604 254.426 186.352C255.101 186.183 255.629 185.656 255.798 184.98L256.599 181.768H251.341Z" fill="#1E2E36"/>
<path d="M332.03 188.752C330.088 188.754 328.395 187.432 327.928 185.547L326.764 180.88C326.607 180.252 326.99 179.616 327.617 179.46C327.71 179.436 327.805 179.425 327.901 179.425H336.158C336.805 179.425 337.33 179.949 337.33 180.596C337.33 180.692 337.318 180.787 337.295 180.88L336.131 185.547C335.664 187.432 333.971 188.754 332.03 188.752V188.752ZM329.401 181.769L330.202 184.98C330.454 185.989 331.476 186.604 332.485 186.352C333.161 186.183 333.689 185.656 333.857 184.98L334.658 181.768L329.401 181.769Z" fill="#1E2E36"/>
</g>
<defs>
<clipPath id="clip0_22713_260">
<rect width="586" height="300" fill="white"/>
</clipPath>
</defs>
</svg>
