<svg width="586" height="300" viewBox="0 0 586 300" fill="none" xmlns="http://www.w3.org/2000/svg">
<g clip-path="url(#clip0_22713_500)">
<rect x="0.5" y="0.5" width="585" height="299" stroke="#1E2E36"/>
<rect x="195.5" y="100.5" width="194.333" height="99" fill="#44C697" stroke="#1E2E36"/>
<line x1="195.773" y1="100.445" x2="-0.227232" y2="0.445389" stroke="#1E2E36"/>
<line y1="-0.5" x2="220.036" y2="-0.5" transform="matrix(0.890762 -0.45447 -0.45447 -0.890762 390 100)" stroke="#1E2E36"/>
<line y1="-0.5" x2="220.036" y2="-0.5" transform="matrix(-0.890762 0.45447 0.45447 0.890762 196 200)" stroke="#1E2E36"/>
<line x1="390.227" y1="199.555" x2="586.227" y2="299.555" stroke="#1E2E36"/>
<path d="M327.924 133.76H258.554C257.907 133.76 257.382 133.235 257.382 132.588V108.247C257.382 107.6 257.907 107.075 258.554 107.075H327.924C328.571 107.075 329.096 107.6 329.096 108.247V132.588C329.096 133.235 328.571 133.76 327.924 133.76ZM259.726 131.416H326.752V109.419H259.726V131.416Z" fill="#1E2E36"/>
<path d="M322.546 133.76H263.933C263.285 133.76 262.761 133.235 262.761 132.588V113.625C262.761 112.978 263.285 112.454 263.933 112.454H322.546C323.193 112.454 323.718 112.978 323.718 113.625V132.588C323.718 133.235 323.193 133.76 322.546 133.76V133.76ZM265.104 131.416H321.374V114.797H265.104V131.416Z" fill="#1E2E36"/>
<path d="M289.705 133.76H267.467C264.869 133.757 262.764 131.652 262.761 129.054V117.16C262.764 114.562 264.869 112.456 267.467 112.453H289.705C292.303 112.456 294.408 114.562 294.411 117.16V129.054C294.408 131.652 292.303 133.757 289.705 133.76V133.76ZM267.467 114.797C266.163 114.799 265.106 115.856 265.104 117.16V129.054C265.106 130.358 266.163 131.415 267.467 131.416H289.705C291.009 131.415 292.066 130.358 292.068 129.054V117.16C292.066 115.856 291.009 114.799 289.705 114.797H267.467Z" fill="#1E2E36"/>
<path d="M319.012 133.76H296.774C294.176 133.757 292.07 131.652 292.067 129.054V117.16C292.07 114.562 294.176 112.456 296.774 112.453H319.012C321.61 112.456 323.715 114.562 323.718 117.16V129.054C323.715 131.652 321.61 133.757 319.012 133.76V133.76ZM296.774 114.797C295.47 114.799 294.413 115.856 294.411 117.16V129.054C294.413 130.358 295.469 131.415 296.774 131.416H319.012C320.316 131.415 321.373 130.358 321.374 129.054V117.16C321.373 115.856 320.316 114.799 319.012 114.797H296.774Z" fill="#1E2E36"/>
<path d="M328.772 192.925H257.706C255.108 192.922 253.003 190.817 253 188.219V136.122C253.003 133.525 255.108 131.419 257.706 131.416H328.772C331.37 131.419 333.476 133.524 333.479 136.122V188.219C333.476 190.817 331.37 192.922 328.772 192.925ZM257.706 133.76C256.402 133.761 255.345 134.818 255.344 136.122V188.219C255.345 189.523 256.402 190.58 257.706 190.581H328.772C330.076 190.58 331.133 189.523 331.135 188.219V136.122C331.133 134.818 330.076 133.761 328.772 133.76H257.706Z" fill="#1E2E36"/>
<path d="M329.224 109.419H257.255C254.906 109.416 253.003 107.513 253 105.164V104.255C253.003 101.906 254.906 100.003 257.255 100H329.224C331.573 100.003 333.476 101.906 333.479 104.255V105.164C333.476 107.513 331.572 109.416 329.224 109.419ZM257.255 102.344C256.2 102.345 255.345 103.2 255.344 104.255V105.164C255.345 106.219 256.2 107.074 257.255 107.075H329.224C330.279 107.074 331.134 106.219 331.135 105.164V104.255C331.134 103.2 330.279 102.345 329.224 102.344H257.255Z" fill="#1E2E36"/>
<path d="M329.224 200H257.255C254.906 199.997 253.003 198.094 253 195.745V194.836C253.003 192.487 254.906 190.584 257.255 190.581H329.224C331.573 190.584 333.476 192.487 333.479 194.836V195.745C333.476 198.094 331.572 199.997 329.224 200ZM257.255 192.925C256.2 192.926 255.345 193.781 255.344 194.836V195.745C255.345 196.8 256.2 197.655 257.255 197.656H329.224C330.279 197.655 331.134 196.8 331.135 195.745V194.836C331.134 193.781 330.279 192.926 329.224 192.925H257.255Z" fill="#1E2E36"/>
</g>
<defs>
<clipPath id="clip0_22713_500">
<rect width="586" height="300" fill="white"/>
</clipPath>
</defs>
</svg>
