<svg width="586" height="300" viewBox="0 0 586 300" fill="none" xmlns="http://www.w3.org/2000/svg">
<g clip-path="url(#clip0_22713_182)">
<rect x="0.5" y="-0.5" width="585" height="299" transform="matrix(1 0 0 -1 0 299)" stroke="#1E2E36"/>
<rect x="0.5" y="-0.5" width="194.333" height="99" transform="matrix(1 0 0 -1 195 199)" fill="#44C697" stroke="#1E2E36"/>
<line y1="-0.5" x2="220.036" y2="-0.5" transform="matrix(-0.890762 0.45447 0.45447 0.890762 196 200)" stroke="#1E2E36"/>
<line x1="390.227" y1="199.555" x2="586.227" y2="299.555" stroke="#1E2E36"/>
<line x1="195.773" y1="100.445" x2="-0.227232" y2="0.445389" stroke="#1E2E36"/>
<line y1="-0.5" x2="220.036" y2="-0.5" transform="matrix(0.890762 -0.45447 -0.45447 -0.890762 390 100)" stroke="#1E2E36"/>
<g clip-path="url(#clip1_22713_182)">
<path d="M336.545 142.075H249.455C248.808 142.075 248.283 141.55 248.283 140.903V115.431C248.283 114.783 248.808 114.259 249.455 114.259H336.545C337.192 114.259 337.717 114.783 337.717 115.431V140.903C337.717 141.55 337.192 142.075 336.545 142.075ZM250.627 139.731H335.373V116.603H250.627V139.731Z" fill="#1E2E36"/>
<path d="M336.545 167.547H249.455C248.808 167.547 248.283 167.022 248.283 166.375V140.903C248.283 140.256 248.808 139.731 249.455 139.731H336.545C337.192 139.731 337.717 140.255 337.717 140.903V166.375C337.717 167.022 337.192 167.547 336.545 167.547ZM250.627 165.203H335.373V142.075H250.627V165.203Z" fill="#1E2E36"/>
<path d="M336.545 193.019H249.455C248.808 193.019 248.283 192.494 248.283 191.847V166.375C248.283 165.728 248.808 165.203 249.455 165.203H336.545C337.192 165.203 337.717 165.728 337.717 166.375V191.847C337.717 192.494 337.192 193.019 336.545 193.019ZM250.627 190.675H335.373V167.547H250.627V190.675Z" fill="#1E2E36"/>
<path d="M295.192 129.339H290.808C290.161 129.339 289.636 128.814 289.636 128.167C289.636 127.52 290.161 126.995 290.808 126.995H295.192C295.839 126.995 296.364 127.52 296.364 128.167C296.364 128.814 295.839 129.339 295.192 129.339Z" fill="#1E2E36"/>
<path d="M295.192 154.811H290.808C290.161 154.811 289.636 154.286 289.636 153.639C289.636 152.991 290.161 152.467 290.808 152.467H295.192C295.839 152.467 296.364 152.991 296.364 153.639C296.364 154.286 295.839 154.811 295.192 154.811Z" fill="#1E2E36"/>
<path d="M295.192 180.283H290.808C290.161 180.283 289.636 179.758 289.636 179.111C289.636 178.463 290.161 177.939 290.808 177.939H295.192C295.839 177.939 296.364 178.464 296.364 179.111C296.364 179.758 295.839 180.283 295.192 180.283Z" fill="#1E2E36"/>
<path d="M339.875 116.603H246.125C244.4 116.601 243.002 115.203 243 113.478V110.106C243.002 108.381 244.4 106.983 246.125 106.981H339.875C341.6 106.983 342.998 108.381 343 110.106V113.478C342.998 115.203 341.6 116.601 339.875 116.603ZM246.125 109.325C245.694 109.325 245.344 109.675 245.344 110.106V113.478C245.344 113.909 245.694 114.258 246.125 114.259H339.875C340.306 114.258 340.656 113.909 340.656 113.478V110.106C340.656 109.675 340.306 109.325 339.875 109.325H246.125Z" fill="#1E2E36"/>
</g>
</g>
<defs>
<clipPath id="clip0_22713_182">
<rect width="586" height="300" fill="white" transform="matrix(1 0 0 -1 0 300)"/>
</clipPath>
<clipPath id="clip1_22713_182">
<rect width="100" height="100" fill="white" transform="translate(243 100)"/>
</clipPath>
</defs>
</svg>
