<svg width="586" height="300" viewBox="0 0 586 300" fill="none" xmlns="http://www.w3.org/2000/svg">
<g clip-path="url(#clip0_22713_323)">
<rect x="0.5" y="0.5" width="585" height="299" stroke="#1E2E36"/>
<rect x="195.5" y="100.5" width="194.333" height="99" fill="#44C697" stroke="#1E2E36"/>
<line x1="195.773" y1="100.445" x2="-0.227232" y2="0.445389" stroke="#1E2E36"/>
<line y1="-0.5" x2="220.036" y2="-0.5" transform="matrix(0.890762 -0.45447 -0.45447 -0.890762 390 100)" stroke="#1E2E36"/>
<line y1="-0.5" x2="220.036" y2="-0.5" transform="matrix(-0.890762 0.45447 0.45447 0.890762 196 200)" stroke="#1E2E36"/>
<line x1="390.227" y1="199.555" x2="586.227" y2="299.555" stroke="#1E2E36"/>
<g clip-path="url(#clip1_22713_323)">
<path d="M325.765 200H260.235C259.588 200 259.063 199.475 259.063 198.828V101.172C259.063 100.525 259.588 100 260.235 100H325.765C326.412 100 326.937 100.525 326.937 101.172V198.828C326.937 199.475 326.412 200 325.765 200ZM261.407 197.656H324.593V102.344H261.407V197.656Z" fill="#1E2E36"/>
<path d="M293 171.494C292.352 171.494 291.828 171.119 291.828 170.656V100.838C291.828 100.375 292.352 100 293 100C293.647 100 294.171 100.375 294.171 100.838V170.656C294.172 171.119 293.647 171.494 293 171.494V171.494Z" fill="#1E2E36"/>
<path d="M293 200H260.235C259.588 200 259.063 199.475 259.063 198.828V184.575C259.063 183.928 259.588 183.403 260.235 183.403H293C293.647 183.403 294.171 183.928 294.171 184.575V198.828C294.172 199.475 293.647 200 293 200ZM261.407 197.656H291.828V185.747H261.407V197.656Z" fill="#1E2E36"/>
<path d="M293 185.747H260.235C259.588 185.747 259.063 185.223 259.063 184.575V170.322C259.063 169.675 259.588 169.15 260.235 169.15H293C293.647 169.15 294.171 169.675 294.171 170.322V184.575C294.172 185.223 293.647 185.747 293 185.747ZM261.407 183.403H291.828V171.494H261.407L261.407 183.403Z" fill="#1E2E36"/>
<path d="M278.267 178.621H274.968C274.321 178.621 273.796 178.096 273.796 177.449C273.796 176.802 274.321 176.277 274.968 176.277H278.267C278.914 176.277 279.439 176.802 279.439 177.449C279.439 178.096 278.914 178.621 278.267 178.621Z" fill="#1E2E36"/>
<path d="M286.093 138.354C285.446 138.354 284.921 137.829 284.921 137.182V134.312C284.921 133.665 285.446 133.14 286.093 133.14C286.741 133.14 287.265 133.665 287.265 134.312V137.182C287.265 137.829 286.74 138.354 286.093 138.354Z" fill="#1E2E36"/>
<path d="M299.906 152.607C299.259 152.607 298.734 152.082 298.734 151.435V148.565C298.734 147.918 299.259 147.393 299.906 147.393C300.553 147.393 301.078 147.918 301.078 148.565V151.435C301.078 152.082 300.553 152.607 299.906 152.607Z" fill="#1E2E36"/>
<path d="M278.267 192.874H274.968C274.321 192.874 273.796 192.349 273.796 191.702C273.796 191.055 274.321 190.53 274.968 190.53H278.267C278.914 190.53 279.439 191.054 279.439 191.702C279.439 192.349 278.914 192.874 278.267 192.874Z" fill="#1E2E36"/>
</g>
</g>
<defs>
<clipPath id="clip0_22713_323">
<rect width="586" height="300" fill="white"/>
</clipPath>
<clipPath id="clip1_22713_323">
<rect width="100" height="100" fill="white" transform="translate(243 100)"/>
</clipPath>
</defs>
</svg>
