<svg width="586" height="300" viewBox="0 0 586 300" fill="none" xmlns="http://www.w3.org/2000/svg">
<g clip-path="url(#clip0_22713_351)">
<rect x="0.5" y="0.5" width="585" height="299" stroke="#1E2E36"/>
<rect x="195.5" y="100.5" width="194.333" height="99" fill="#44C697" stroke="#1E2E36"/>
<line x1="195.773" y1="100.445" x2="-0.227232" y2="0.445389" stroke="#1E2E36"/>
<line y1="-0.5" x2="220.036" y2="-0.5" transform="matrix(0.890762 -0.45447 -0.45447 -0.890762 390 100)" stroke="#1E2E36"/>
<line y1="-0.5" x2="220.036" y2="-0.5" transform="matrix(-0.890762 0.45447 0.45447 0.890762 196 200)" stroke="#1E2E36"/>
<line x1="390.227" y1="199.555" x2="586.227" y2="299.555" stroke="#1E2E36"/>
<g clip-path="url(#clip1_22713_351)">
<path d="M310.788 191.13H275.212C274.565 191.13 274.04 190.606 274.04 189.959V162.714C274.04 162.067 274.565 161.542 275.212 161.542H310.788C311.435 161.542 311.96 162.066 311.96 162.714V189.959C311.96 190.606 311.435 191.13 310.788 191.13ZM276.384 188.787H309.616V163.886H276.384V188.787Z" fill="#1E2E36"/>
<path d="M310.788 196.145H275.212C274.565 196.145 274.04 195.62 274.04 194.973V189.958C274.04 189.311 274.565 188.786 275.212 188.786H310.788C311.435 188.786 311.96 189.311 311.96 189.958V194.973C311.96 195.62 311.435 196.145 310.788 196.145ZM276.384 193.801H309.616V191.13H276.384V193.801Z" fill="#1E2E36"/>
<path d="M310.788 163.886H275.212C274.565 163.886 274.04 163.361 274.04 162.714V151.162C274.04 150.515 274.565 149.99 275.212 149.99H310.788C311.435 149.99 311.96 150.515 311.96 151.162V162.714C311.96 163.361 311.435 163.886 310.788 163.886ZM276.384 161.542H309.616V152.334H276.384V161.542Z" fill="#1E2E36"/>
<path d="M293 160.736C290.902 160.736 289.202 159.035 289.202 156.938C289.202 154.841 290.902 153.14 293 153.14C295.097 153.14 296.798 154.84 296.798 156.938C296.795 159.034 295.096 160.733 293 160.736V160.736ZM293 155.484C292.197 155.484 291.546 156.135 291.546 156.938C291.546 157.741 292.197 158.392 293 158.392C293.803 158.392 294.454 157.741 294.454 156.938C294.453 156.135 293.803 155.485 293 155.484Z" fill="#1E2E36"/>
<path d="M302.867 160.736C300.769 160.736 299.069 159.035 299.069 156.938C299.069 154.84 300.769 153.14 302.866 153.14C304.964 153.14 306.664 154.84 306.664 156.938C306.662 159.034 304.963 160.733 302.867 160.736V160.736ZM302.867 155.484C302.064 155.484 301.413 156.135 301.413 156.938C301.413 157.741 302.064 158.392 302.866 158.392C303.67 158.392 304.321 157.741 304.321 156.938C304.32 156.135 303.669 155.485 302.867 155.484V155.484Z" fill="#1E2E36"/>
<path d="M283.133 160.736C281.035 160.736 279.335 159.035 279.335 156.938C279.335 154.84 281.035 153.14 283.133 153.14C285.23 153.14 286.931 154.84 286.931 156.938C286.928 159.035 285.229 160.733 283.133 160.736ZM283.133 155.484C282.33 155.484 281.679 156.135 281.679 156.938C281.679 157.741 282.33 158.392 283.133 158.392C283.936 158.392 284.587 157.741 284.587 156.938C284.586 156.135 283.935 155.485 283.133 155.484Z" fill="#1E2E36"/>
<path d="M303.908 170.737H282.091C280.569 170.736 279.336 169.502 279.336 167.98C279.337 166.458 280.57 165.225 282.091 165.225H303.908C305.431 165.224 306.665 166.458 306.666 167.98C306.666 169.502 305.433 170.736 303.911 170.737C303.91 170.737 303.909 170.737 303.908 170.737ZM282.091 167.568C281.864 167.569 281.679 167.753 281.679 167.981C281.68 168.209 281.864 168.393 282.091 168.393H303.908C304.136 168.393 304.321 168.209 304.321 167.981C304.321 167.753 304.137 167.569 303.909 167.568C303.909 167.568 303.909 167.568 303.908 167.568H282.091Z" fill="#1E2E36"/>
<path d="M302.867 187.389H283.133C282.486 187.389 281.961 186.864 281.961 186.217V169.565C281.961 168.918 282.486 168.393 283.133 168.393H302.867C303.514 168.393 304.039 168.917 304.039 169.565V186.217C304.039 186.864 303.514 187.389 302.867 187.389ZM284.305 185.045H301.695V170.737H284.305V185.045Z" fill="#1E2E36"/>
<path d="M285.191 152.334C284.544 152.334 284.02 151.809 284.02 151.162V148.254C284.02 147.607 284.544 147.082 285.191 147.082C285.838 147.082 286.363 147.607 286.363 148.254V151.162C286.363 151.809 285.839 152.334 285.191 152.334V152.334Z" fill="#1E2E36"/>
<path d="M290.747 152.334C290.099 152.334 289.575 151.81 289.575 151.162V149.426H288.012C287.365 149.426 286.84 148.901 286.84 148.254C286.84 147.607 287.365 147.082 288.012 147.082H290.747C291.394 147.082 291.919 147.607 291.919 148.254V151.162C291.918 151.81 291.394 152.334 290.747 152.334Z" fill="#1E2E36"/>
<path d="M279.635 152.334C278.988 152.334 278.463 151.81 278.463 151.162V148.254C278.463 147.607 278.988 147.082 279.635 147.082H282.37C283.017 147.082 283.541 147.607 283.541 148.254C283.541 148.901 283.017 149.426 282.37 149.426H280.807V151.162C280.807 151.81 280.283 152.334 279.635 152.334Z" fill="#1E2E36"/>
<path d="M300.809 152.334C300.162 152.334 299.637 151.809 299.637 151.162V148.254C299.637 147.607 300.161 147.082 300.809 147.082C301.456 147.082 301.98 147.607 301.98 148.254V151.162C301.98 151.809 301.456 152.334 300.809 152.334Z" fill="#1E2E36"/>
<path d="M295.254 152.334C294.606 152.334 294.082 151.81 294.082 151.162V148.254C294.082 147.607 294.606 147.082 295.254 147.082H297.988C298.635 147.082 299.16 147.607 299.16 148.254C299.16 148.901 298.635 149.426 297.988 149.426H296.425V151.162C296.425 151.81 295.901 152.334 295.254 152.334Z" fill="#1E2E36"/>
<path d="M306.365 152.334C305.717 152.334 305.193 151.81 305.193 151.162V149.426H303.63C302.983 149.426 302.458 148.901 302.458 148.254C302.458 147.607 302.983 147.082 303.63 147.082H306.365C307.012 147.082 307.537 147.607 307.537 148.254V151.162C307.536 151.81 307.012 152.334 306.365 152.334Z" fill="#1E2E36"/>
<path d="M316.452 156.602H314.354C313.707 156.602 313.183 156.077 313.183 155.43C313.183 154.783 313.707 154.258 314.354 154.258H316.452C317.1 154.258 317.624 154.783 317.624 155.43C317.624 156.078 317.1 156.602 316.452 156.602V156.602Z" fill="#1E2E36"/>
<path d="M320.018 196.145H310.788C310.141 196.145 309.616 195.62 309.616 194.973V151.162C309.616 150.515 310.141 149.99 310.788 149.99H320.018C320.665 149.99 321.19 150.515 321.19 151.162V194.973C321.19 195.62 320.665 196.145 320.018 196.145ZM311.96 193.801H318.846V152.334H311.96V193.801Z" fill="#1E2E36"/>
<path d="M341.828 174.24H320.018C319.371 174.24 318.847 173.715 318.847 173.068V151.162C318.847 150.515 319.371 149.99 320.018 149.99H341.828C342.476 149.99 343 150.515 343 151.162V173.068C343 173.715 342.476 174.24 341.828 174.24ZM321.19 171.896H340.657V152.334H321.19V171.896Z" fill="#1E2E36"/>
<path d="M333.734 156.602H328.113C327.466 156.602 326.941 156.077 326.941 155.43C326.941 154.783 327.466 154.258 328.113 154.258H333.734C334.381 154.258 334.905 154.783 334.905 155.43C334.905 156.078 334.381 156.602 333.734 156.602Z" fill="#1E2E36"/>
<path d="M262.503 156.602H256.882C256.235 156.602 255.71 156.077 255.71 155.43C255.71 154.783 256.235 154.258 256.882 154.258H262.502C263.15 154.258 263.674 154.783 263.674 155.43C263.674 156.078 263.15 156.602 262.503 156.602V156.602Z" fill="#1E2E36"/>
<path d="M341.828 196.145H320.018C319.371 196.145 318.847 195.62 318.847 194.973V173.068C318.847 172.421 319.371 171.896 320.018 171.896H341.828C342.476 171.896 343 172.42 343 173.068V194.973C343 195.62 342.476 196.145 341.828 196.145ZM321.19 193.801H340.657V174.24H321.19V193.801Z" fill="#1E2E36"/>
<path d="M333.734 178.507H328.113C327.466 178.507 326.941 177.982 326.941 177.335C326.941 176.688 327.466 176.163 328.113 176.163H333.734C334.381 176.163 334.905 176.688 334.905 177.335C334.905 177.982 334.381 178.507 333.734 178.507Z" fill="#1E2E36"/>
<path d="M259.692 196.145H244.172C243.525 196.145 243 195.62 243 194.973V162.714C243 162.067 243.525 161.542 244.172 161.542H259.692C260.339 161.542 260.864 162.066 260.864 162.714V194.973C260.864 195.62 260.339 196.145 259.692 196.145ZM245.344 193.801H258.52V163.886H245.344V193.801Z" fill="#1E2E36"/>
<path d="M275.212 196.145H259.692C259.045 196.145 258.52 195.62 258.52 194.973V162.714C258.52 162.067 259.045 161.542 259.692 161.542H275.212C275.859 161.542 276.384 162.066 276.384 162.714V194.973C276.384 195.62 275.859 196.145 275.212 196.145ZM260.864 193.801H274.04V163.886H260.864V193.801Z" fill="#1E2E36"/>
<path d="M263.397 181.966C262.75 181.966 262.226 181.441 262.226 180.794V176.893C262.226 176.246 262.75 175.721 263.397 175.721C264.045 175.721 264.569 176.246 264.569 176.893V180.794C264.569 181.441 264.045 181.966 263.397 181.966V181.966Z" fill="#1E2E36"/>
<path d="M255.987 181.966C255.34 181.966 254.815 181.441 254.815 180.794V176.893C254.815 176.246 255.34 175.721 255.987 175.721C256.634 175.721 257.159 176.246 257.159 176.893V180.794C257.159 181.441 256.634 181.966 255.987 181.966V181.966Z" fill="#1E2E36"/>
<path d="M275.212 163.886H244.172C243.525 163.886 243 163.361 243 162.714V151.162C243 150.515 243.525 149.99 244.172 149.99H275.212C275.859 149.99 276.384 150.515 276.384 151.162V162.714C276.384 163.361 275.859 163.886 275.212 163.886ZM245.344 161.542H274.04V152.334H245.344V161.542Z" fill="#1E2E36"/>
<path d="M309.467 127.777H276.533C275.157 127.776 274.042 126.66 274.04 125.284V121.919C274.042 120.543 275.157 119.428 276.533 119.426H309.467C310.843 119.428 311.958 120.543 311.96 121.919V125.284C311.958 126.66 310.843 127.776 309.467 127.777V127.777ZM276.533 121.77C276.451 121.77 276.384 121.837 276.384 121.919V125.284C276.384 125.366 276.451 125.433 276.533 125.433H309.467C309.549 125.433 309.616 125.366 309.616 125.284V121.919C309.616 121.837 309.549 121.77 309.467 121.77H276.533Z" fill="#1E2E36"/>
<path d="M307.024 121.77H278.976C277.612 121.77 276.507 120.664 276.506 119.301C276.506 118.541 276.856 117.824 277.454 117.356L278.355 116.651C281.941 113.863 284.033 109.57 284.019 105.028C284.019 104.38 284.544 103.856 285.191 103.856H300.809C301.456 103.856 301.98 104.38 301.98 105.028C301.967 109.57 304.059 113.863 307.645 116.651L308.545 117.356C309.619 118.196 309.809 119.748 308.969 120.822C308.501 121.42 307.784 121.77 307.024 121.77V121.77ZM286.324 106.199C286.006 111.043 283.631 115.518 279.799 118.497L278.898 119.202C278.844 119.244 278.834 119.323 278.877 119.378C278.901 119.408 278.937 119.426 278.976 119.426H307.024C307.093 119.426 307.149 119.37 307.149 119.3C307.149 119.262 307.132 119.225 307.102 119.202H307.101L306.201 118.497C302.369 115.519 299.994 111.043 299.676 106.199H286.324V106.199Z" fill="#1E2E36"/>
<path d="M338.2 127.777H319.552C317.93 127.777 316.615 126.462 316.615 124.84C316.615 123.218 317.93 121.903 319.552 121.903H338.2C339.822 121.903 341.137 123.218 341.137 124.84C341.137 126.462 339.822 127.777 338.2 127.777ZM319.552 124.247C319.224 124.247 318.958 124.513 318.958 124.84C318.958 125.168 319.224 125.433 319.552 125.433H338.2C338.528 125.433 338.794 125.168 338.794 124.84C338.794 124.513 338.528 124.247 338.2 124.247H319.552Z" fill="#1E2E36"/>
<path d="M266.448 127.777H247.8C246.178 127.777 244.863 126.462 244.863 124.84C244.863 123.218 246.178 121.903 247.8 121.903H266.448C268.07 121.903 269.385 123.218 269.385 124.84C269.385 126.462 268.071 127.777 266.448 127.777ZM247.8 124.247C247.472 124.247 247.207 124.513 247.207 124.84C247.207 125.168 247.472 125.433 247.8 125.433H266.448C266.776 125.433 267.042 125.168 267.042 124.84C267.042 124.513 266.776 124.247 266.448 124.247H247.8Z" fill="#1E2E36"/>
<path d="M264.578 124.247H259.81C259.163 124.247 258.639 123.722 258.639 123.075V119.046C258.639 118.399 259.163 117.875 259.81 117.875H264.578C265.225 117.875 265.749 118.399 265.749 119.046V123.075C265.749 123.722 265.225 124.247 264.578 124.247V124.247ZM260.982 121.903H263.406V120.218H260.982V121.903Z" fill="#1E2E36"/>
<path d="M265.701 120.218H258.687C258.04 120.218 257.516 119.693 257.516 119.046C257.516 118.399 258.04 117.875 258.687 117.875H265.701C266.348 117.875 266.872 118.399 266.872 119.046C266.872 119.693 266.348 120.218 265.701 120.218Z" fill="#1E2E36"/>
<path d="M254.437 124.247H249.67C249.023 124.247 248.499 123.722 248.499 123.075V119.046C248.499 118.399 249.023 117.875 249.67 117.875H254.437C255.085 117.875 255.609 118.399 255.609 119.046V123.075C255.609 123.722 255.085 124.247 254.437 124.247ZM250.842 121.903H253.265V120.218H250.842L250.842 121.903Z" fill="#1E2E36"/>
<path d="M255.56 120.218H248.547C247.9 120.218 247.375 119.693 247.375 119.046C247.375 118.399 247.9 117.875 248.547 117.875H255.56C256.208 117.875 256.732 118.399 256.732 119.046C256.732 119.693 256.208 120.218 255.56 120.218Z" fill="#1E2E36"/>
<path d="M264.578 120.218H259.81C259.163 120.218 258.639 119.693 258.639 119.046V115.017C258.639 114.37 259.163 113.846 259.81 113.846H264.578C265.225 113.846 265.749 114.37 265.749 115.017V119.046C265.749 119.693 265.225 120.218 264.578 120.218V120.218ZM260.982 117.874H263.406V116.189H260.982V117.874Z" fill="#1E2E36"/>
<path d="M265.701 116.189H258.687C258.04 116.189 257.516 115.665 257.516 115.017C257.516 114.37 258.04 113.846 258.687 113.846H265.701C266.348 113.846 266.872 114.37 266.872 115.017C266.872 115.665 266.348 116.189 265.701 116.189Z" fill="#1E2E36"/>
<path d="M254.437 120.218H249.67C249.023 120.218 248.499 119.693 248.499 119.046V115.017C248.499 114.37 249.023 113.846 249.67 113.846H254.437C255.085 113.846 255.609 114.37 255.609 115.017V119.046C255.609 119.693 255.085 120.218 254.437 120.218V120.218ZM250.842 117.874H253.265V116.189H250.842L250.842 117.874Z" fill="#1E2E36"/>
<path d="M255.56 116.189H248.547C247.9 116.189 247.375 115.665 247.375 115.017C247.375 114.37 247.9 113.846 248.547 113.846H255.56C256.208 113.846 256.732 114.37 256.732 115.017C256.732 115.665 256.208 116.189 255.56 116.189Z" fill="#1E2E36"/>
<path d="M328.876 124.247C324.698 124.246 321.312 120.859 321.313 116.682C321.313 115.259 321.715 113.865 322.471 112.66C322.686 112.319 323.06 112.112 323.463 112.112H334.289C334.691 112.112 335.066 112.319 335.28 112.66C337.502 116.197 336.435 120.866 332.898 123.088C331.693 123.845 330.299 124.247 328.876 124.247V124.247ZM324.155 114.456C322.926 117.064 324.044 120.173 326.652 121.402C329.26 122.63 332.369 121.512 333.598 118.904C334.261 117.496 334.261 115.865 333.598 114.456H324.155V114.456Z" fill="#1E2E36"/>
<path d="M328.767 114.456C328.12 114.456 327.595 113.931 327.595 113.284V105.745C327.595 105.098 328.119 104.573 328.767 104.573C329.414 104.573 329.938 105.098 329.938 105.745V113.284C329.938 113.931 329.414 114.456 328.767 114.456V114.456Z" fill="#1E2E36"/>
<path d="M328.767 114.456C328.12 114.456 327.595 113.931 327.595 113.284C327.595 112.973 327.719 112.675 327.938 112.456L331.994 108.401C332.456 107.948 333.198 107.955 333.651 108.417C334.097 108.873 334.097 109.602 333.651 110.058L329.596 114.113C329.376 114.333 329.078 114.457 328.767 114.456V114.456Z" fill="#1E2E36"/>
<path d="M328.767 114.456C328.456 114.456 328.158 114.333 327.938 114.113L323.883 110.058C323.421 109.605 323.413 108.863 323.866 108.4C324.319 107.938 325.061 107.93 325.523 108.383C325.529 108.389 325.535 108.395 325.541 108.4L329.596 112.456C330.053 112.913 330.053 113.655 329.596 114.113C329.376 114.333 329.078 114.456 328.767 114.456Z" fill="#1E2E36"/>
<path d="M303.857 149.426H298.142C294.902 149.422 292.276 146.796 292.272 143.556V140.801C292.272 140.154 292.797 139.629 293.444 139.629H308.556C309.203 139.629 309.728 140.154 309.728 140.801V143.556C309.724 146.796 307.098 149.422 303.857 149.426ZM294.616 141.973V143.556C294.618 145.503 296.196 147.08 298.142 147.083H303.857C305.804 147.08 307.382 145.503 307.384 143.556V141.973H294.616Z" fill="#1E2E36"/>
<path d="M310.788 144.038H308.556C307.909 144.038 307.384 143.514 307.384 142.867C307.384 142.219 307.908 141.695 308.556 141.695H310.788C311.435 141.695 311.96 142.219 311.96 142.867C311.96 143.514 311.435 144.038 310.788 144.038Z" fill="#1E2E36"/>
<path d="M293.062 144.038H290.83C290.183 144.038 289.658 143.514 289.658 142.867C289.658 142.219 290.183 141.695 290.83 141.695H293.062C293.71 141.695 294.234 142.219 294.234 142.867C294.234 143.514 293.71 144.038 293.062 144.038Z" fill="#1E2E36"/>
<path d="M308.556 141.973H293.444C292.797 141.973 292.272 141.448 292.272 140.801C292.272 140.564 292.344 140.333 292.478 140.137C294.118 137.752 297.383 136.27 301 136.27C304.617 136.27 307.882 137.752 309.521 140.137C309.888 140.671 309.753 141.4 309.219 141.767C309.024 141.901 308.793 141.973 308.556 141.973ZM296.591 139.629H305.409C302.625 138.275 299.374 138.275 296.591 139.629V139.629Z" fill="#1E2E36"/>
<path d="M299.568 138.703C299.281 138.703 299.004 138.597 298.79 138.406C297.415 137.186 297.29 135.082 298.511 133.707C299.731 132.332 301.835 132.207 303.21 133.428C304.585 134.648 304.71 136.752 303.489 138.127C303.402 138.225 303.309 138.319 303.21 138.406C302.729 138.839 301.988 138.801 301.555 138.32C301.122 137.839 301.16 137.098 301.641 136.665C301.645 136.662 301.649 136.658 301.652 136.655C302.06 136.295 302.098 135.672 301.738 135.265C301.378 134.857 300.755 134.819 300.348 135.179C299.94 135.539 299.902 136.161 300.262 136.569C300.289 136.599 300.317 136.628 300.348 136.655C300.831 137.085 300.875 137.826 300.445 138.309C300.222 138.56 299.903 138.703 299.568 138.703V138.703Z" fill="#1E2E36"/>
<path d="M256.903 152.334H251.953C251.306 152.334 250.781 151.81 250.781 151.162V138.575C250.781 137.928 251.306 137.404 251.953 137.404H256.903C257.55 137.404 258.075 137.928 258.075 138.575V151.162C258.075 151.81 257.55 152.334 256.903 152.334ZM253.125 149.991H255.731V139.747H253.125V149.991Z" fill="#1E2E36"/>
<path d="M251.953 152.334H247.003C246.356 152.334 245.832 151.81 245.832 151.162V138.575C245.832 137.928 246.356 137.404 247.003 137.404H251.953C252.6 137.404 253.125 137.928 253.125 138.575V151.162C253.125 151.81 252.6 152.334 251.953 152.334ZM248.175 149.991H250.781V139.747H248.175L248.175 149.991Z" fill="#1E2E36"/>
<path d="M267.774 152.334H265.565C263.328 152.332 261.516 150.52 261.514 148.283V144.174C261.514 143.527 262.038 143.002 262.685 143.002H270.653C271.301 143.002 271.825 143.527 271.825 144.174V148.283C271.823 150.52 270.011 152.332 267.774 152.334V152.334ZM263.858 145.346V148.283C263.859 149.226 264.622 149.989 265.565 149.99H267.774C268.717 149.989 269.481 149.226 269.482 148.283V145.346H263.858V145.346Z" fill="#1E2E36"/>
<path d="M271.339 145.346H262C260.778 145.345 259.788 144.354 259.787 143.133V141.917C259.788 140.695 260.778 139.705 262 139.704H271.339C272.561 139.705 273.551 140.695 273.552 141.917V143.133C273.551 144.354 272.561 145.345 271.339 145.346ZM262.13 143.002H271.209V142.047H262.13V143.002Z" fill="#1E2E36"/>
<path d="M320.97 152.334H314.936C314.289 152.334 313.765 151.81 313.765 151.162V142.916C313.765 142.268 314.289 141.744 314.936 141.744H320.97C321.617 141.744 322.142 142.268 322.142 142.916V151.162C322.142 151.81 321.617 152.334 320.97 152.334ZM316.108 149.99H319.798V144.088H316.108V149.99Z" fill="#1E2E36"/>
<path d="M320.97 144.087H314.936C314.289 144.087 313.765 143.563 313.765 142.916V139.313C313.765 138.666 314.289 138.141 314.936 138.141H320.97C321.617 138.141 322.142 138.666 322.142 139.313V142.916C322.142 143.563 321.617 144.087 320.97 144.087ZM316.108 141.744H319.798V140.485H316.108V141.744Z" fill="#1E2E36"/>
<path d="M335.437 148.371C333.522 148.371 332.022 146.528 332.022 144.175C332.022 141.822 333.522 139.979 335.437 139.979C337.351 139.979 338.851 141.822 338.851 144.175C338.851 146.528 337.351 148.371 335.437 148.371ZM335.437 142.323C334.931 142.323 334.366 143.115 334.366 144.175C334.366 145.235 334.931 146.027 335.437 146.027C335.942 146.027 336.507 145.235 336.507 144.175C336.507 143.115 335.942 142.323 335.437 142.323Z" fill="#1E2E36"/>
<path d="M335.437 142.3C334.89 142.3 334.416 141.923 334.295 141.39L332.503 133.576C332.132 131.956 333.144 130.342 334.764 129.971C336.385 129.599 337.999 130.611 338.37 132.232C338.472 132.674 338.472 133.134 338.37 133.576L336.579 141.39C336.457 141.923 335.983 142.3 335.437 142.3V142.3ZM335.437 132.238C335.069 132.238 334.771 132.536 334.771 132.904C334.771 132.954 334.777 133.004 334.788 133.053L335.437 135.884L336.086 133.053C336.168 132.695 335.944 132.338 335.586 132.256C335.537 132.244 335.487 132.238 335.437 132.238Z" fill="#1E2E36"/>
<path d="M327.008 142.3C326.462 142.3 325.988 141.923 325.866 141.39L324.074 133.577C323.703 131.957 324.715 130.342 326.335 129.971C327.955 129.599 329.57 130.612 329.941 132.232C330.043 132.674 330.043 133.134 329.941 133.577L328.15 141.39C328.028 141.923 327.554 142.3 327.008 142.3V142.3ZM327.008 132.239C326.64 132.239 326.342 132.537 326.342 132.904C326.342 132.954 326.348 133.004 326.359 133.053L327.008 135.884L327.657 133.053C327.739 132.695 327.515 132.338 327.157 132.256C327.108 132.244 327.058 132.239 327.008 132.239V132.239Z" fill="#1E2E36"/>
<path d="M329.701 146.088H324.315C323.732 146.088 323.238 145.659 323.155 145.082C322.953 143.729 323.348 142.356 324.238 141.317C324.995 140.444 326.004 139.943 327.008 139.943C328.011 139.943 329.021 140.444 329.778 141.317C330.668 142.356 331.063 143.73 330.861 145.082C330.778 145.659 330.284 146.088 329.701 146.088ZM325.535 143.744H328.48C328.391 143.415 328.229 143.11 328.007 142.852C327.709 142.509 327.317 142.286 327.008 142.286C326.699 142.286 326.307 142.509 326.009 142.852C325.786 143.11 325.624 143.415 325.535 143.744Z" fill="#1E2E36"/>
</g>
</g>
<defs>
<clipPath id="clip0_22713_351">
<rect width="586" height="300" fill="white"/>
</clipPath>
<clipPath id="clip1_22713_351">
<rect width="100" height="100" fill="white" transform="translate(243 100)"/>
</clipPath>
</defs>
</svg>
