<svg width="586" height="300" viewBox="0 0 586 300" fill="none" xmlns="http://www.w3.org/2000/svg">
<g clip-path="url(#clip0_22712_46)">
<rect x="0.5" y="0.5" width="585" height="299" stroke="#1E2E36"/>
<rect x="195.5" y="100.5" width="194.333" height="99" fill="#44C697" stroke="#1E2E36"/>
<line x1="195.773" y1="100.445" x2="-0.227232" y2="0.445389" stroke="#1E2E36"/>
<line y1="-0.5" x2="220.036" y2="-0.5" transform="matrix(0.890762 -0.45447 -0.45447 -0.890762 390 100)" stroke="#1E2E36"/>
<line y1="-0.5" x2="220.036" y2="-0.5" transform="matrix(-0.890762 0.45447 0.45447 0.890762 196 200)" stroke="#1E2E36"/>
<line x1="390.227" y1="199.555" x2="586.227" y2="299.555" stroke="#1E2E36"/>
<g clip-path="url(#clip1_22712_46)">
<path d="M289.665 187.179H259.765C257.277 187.176 255.261 185.16 255.258 182.673V171.057C255.261 168.569 257.277 166.553 259.765 166.551H289.665C292.153 166.553 294.169 168.569 294.172 171.057V182.673C294.169 185.16 292.153 187.176 289.665 187.179ZM259.765 168.894C258.571 168.895 257.603 169.863 257.602 171.057V182.673C257.603 183.866 258.571 184.834 259.765 184.835H289.665C290.859 184.834 291.827 183.866 291.828 182.673V171.057C291.827 169.863 290.859 168.895 289.665 168.894H259.765Z" fill="#1E2E36"/>
<path d="M253.095 187.179H247.506C245.019 187.176 243.003 185.16 243 182.673V160.436C243.003 157.948 245.019 155.932 247.506 155.929H253.095C255.583 155.932 257.599 157.948 257.602 160.436V182.673C257.599 185.16 255.583 187.176 253.095 187.179V187.179ZM247.506 158.273C246.313 158.274 245.345 159.242 245.344 160.436V182.673C245.345 183.867 246.313 184.834 247.506 184.835H253.095C254.289 184.834 255.257 183.866 255.258 182.673V160.436C255.257 159.242 254.289 158.274 253.095 158.273H247.506Z" fill="#1E2E36"/>
<path d="M329.57 178.037H256.43C255.783 178.037 255.258 177.512 255.258 176.865C255.258 176.218 255.783 175.693 256.43 175.693H329.57C330.217 175.693 330.742 176.218 330.742 176.865C330.742 177.512 330.217 178.037 329.57 178.037Z" fill="#1E2E36"/>
<path d="M289.665 168.894H259.765C257.277 168.891 255.261 166.875 255.258 164.388V146.541C255.261 144.053 257.277 142.037 259.765 142.034H289.665C292.153 142.037 294.169 144.053 294.172 146.541V164.388C294.169 166.875 292.153 168.891 289.665 168.894ZM259.765 144.378C258.571 144.379 257.603 145.347 257.602 146.54V164.387C257.603 165.581 258.571 166.549 259.765 166.55H289.665C290.859 166.549 291.827 165.581 291.828 164.387V146.541C291.827 145.347 290.859 144.379 289.665 144.378L259.765 144.378Z" fill="#1E2E36"/>
<path d="M326.235 168.894H296.335C293.847 168.891 291.831 166.875 291.828 164.388V146.541C291.831 144.053 293.847 142.037 296.335 142.034H326.235C328.723 142.037 330.739 144.053 330.742 146.541V164.388C330.739 166.875 328.723 168.891 326.235 168.894V168.894ZM296.335 144.378C295.141 144.379 294.173 145.347 294.172 146.54V164.387C294.173 165.581 295.141 166.549 296.335 166.55H326.235C327.429 166.549 328.397 165.581 328.398 164.387V146.541C328.397 145.347 327.429 144.379 326.235 144.378L296.335 144.378Z" fill="#1E2E36"/>
<path d="M326.235 187.179H296.335C293.847 187.176 291.831 185.16 291.828 182.673V171.057C291.831 168.569 293.847 166.553 296.335 166.551H326.235C328.723 166.553 330.739 168.569 330.742 171.057V182.673C330.739 185.16 328.723 187.176 326.235 187.179V187.179ZM296.335 168.894C295.141 168.895 294.173 169.863 294.172 171.057V182.673C294.173 183.866 295.141 184.834 296.335 184.835H326.235C327.429 184.834 328.397 183.866 328.398 182.673V171.057C328.397 169.863 327.429 168.895 326.235 168.894H296.335Z" fill="#1E2E36"/>
<path d="M338.493 187.179H332.905C330.417 187.176 328.401 185.16 328.398 182.673V160.436C328.401 157.948 330.417 155.932 332.905 155.929H338.493C340.981 155.932 342.997 157.948 343 160.436V182.673C342.997 185.16 340.981 187.176 338.493 187.179ZM332.904 158.273C331.711 158.274 330.743 159.242 330.742 160.436V182.673C330.743 183.867 331.711 184.834 332.904 184.835H338.493C339.687 184.834 340.655 183.866 340.656 182.672V160.436C340.655 159.242 339.687 158.274 338.493 158.273H332.904Z" fill="#1E2E36"/>
<path d="M295.74 168.894H290.26C289.613 168.894 289.089 168.369 289.089 167.722C289.089 167.075 289.613 166.55 290.26 166.55H295.74C296.387 166.55 296.912 167.075 296.912 167.722C296.912 168.37 296.387 168.894 295.74 168.894Z" fill="#1E2E36"/>
<path d="M314.45 138.639H271.549C270.902 138.639 270.378 138.114 270.378 137.467V109.625C270.378 108.978 270.902 108.453 271.549 108.453H314.45C315.098 108.453 315.622 108.978 315.622 109.625V137.467C315.622 138.114 315.098 138.639 314.45 138.639ZM272.721 136.295H313.279V110.796H272.721V136.295Z" fill="#1E2E36"/>
<path d="M310.547 134.735H275.453C274.806 134.735 274.281 134.21 274.281 133.563V113.528C274.281 112.881 274.806 112.356 275.453 112.356H310.547C311.194 112.356 311.719 112.881 311.719 113.528V133.563C311.719 134.21 311.194 134.735 310.547 134.735ZM276.625 132.391H309.375V114.7H276.625V132.391Z" fill="#1E2E36"/>
<path d="M279.653 130.44C279.006 130.44 278.481 129.915 278.481 129.268C278.481 128.957 278.605 128.659 278.825 128.439L284.851 122.413C285.309 121.955 286.051 121.955 286.508 122.413L290.165 126.07C290.623 126.527 290.623 127.269 290.165 127.727C289.708 128.185 288.966 128.185 288.508 127.727L285.68 124.899L280.482 130.097C280.263 130.317 279.964 130.44 279.653 130.44V130.44Z" fill="#1E2E36"/>
<path d="M306.346 130.38C306.035 130.38 305.737 130.257 305.518 130.037C304.092 128.611 302.666 127.184 301.24 125.757C299.634 124.153 298.029 122.548 296.426 120.943L295.674 120.192C295.437 119.955 295.201 119.718 294.964 119.482L288.442 126.004C287.984 126.461 287.242 126.461 286.785 126.004C286.327 125.546 286.327 124.804 286.785 124.346L294.136 116.995C294.355 116.776 294.654 116.652 294.964 116.652H294.965C295.276 116.652 295.574 116.776 295.794 116.997C296.306 117.509 296.818 118.022 297.331 118.534L298.084 119.286C299.687 120.891 301.291 122.495 302.897 124.099C304.322 125.526 305.748 126.953 307.175 128.379C307.633 128.837 307.633 129.579 307.175 130.037C306.955 130.256 306.657 130.38 306.346 130.38V130.38Z" fill="#1E2E36"/>
<path d="M302.069 126.1C301.758 126.1 301.46 125.977 301.24 125.758C299.633 124.153 298.028 122.548 296.426 120.943C296.092 120.609 295.991 120.107 296.17 119.67C297.189 117.186 300.028 115.997 302.513 117.015C304.997 118.033 306.186 120.873 305.168 123.357C304.674 124.562 303.718 125.519 302.513 126.013C302.372 126.071 302.221 126.1 302.069 126.1V126.1ZM298.718 119.921C299.898 121.103 301.08 122.284 302.262 123.466C303.34 122.585 303.499 120.998 302.619 119.921C301.739 118.844 300.152 118.684 299.074 119.564C298.944 119.671 298.824 119.79 298.718 119.921Z" fill="#1E2E36"/>
<path d="M335.699 191.547C334.283 191.549 333.049 190.584 332.707 189.21L331.979 186.291C331.823 185.663 332.205 185.027 332.833 184.87C332.926 184.847 333.021 184.835 333.117 184.835H338.281C338.929 184.835 339.453 185.36 339.453 186.007C339.453 186.103 339.442 186.198 339.419 186.291L338.691 189.21C338.35 190.584 337.115 191.549 335.699 191.547V191.547ZM334.617 187.179L334.982 188.643C335.08 189.039 335.482 189.28 335.878 189.181C336.143 189.115 336.35 188.908 336.416 188.643L336.781 187.179L334.617 187.179Z" fill="#1E2E36"/>
<path d="M250.301 191.547C248.885 191.549 247.651 190.584 247.31 189.21L246.581 186.291C246.425 185.663 246.807 185.027 247.435 184.87C247.528 184.847 247.623 184.835 247.719 184.835H252.884C253.531 184.835 254.055 185.36 254.055 186.007C254.055 186.103 254.044 186.198 254.021 186.291L253.293 189.21C252.951 190.584 251.717 191.549 250.301 191.547V191.547ZM249.219 187.179L249.584 188.643C249.683 189.039 250.084 189.28 250.48 189.181C250.745 189.115 250.952 188.908 251.018 188.643L251.384 187.179L249.219 187.179Z" fill="#1E2E36"/>
</g>
</g>
<defs>
<clipPath id="clip0_22712_46">
<rect width="586" height="300" fill="white"/>
</clipPath>
<clipPath id="clip1_22712_46">
<rect width="100" height="100" fill="white" transform="translate(243 100)"/>
</clipPath>
</defs>
</svg>
